<svg width="78" height="51" viewBox="0 0 78 51" fill="none" xmlns="http://www.w3.org/2000/svg">
<mask id="mask0_360_150" style="mask-type:alpha" maskUnits="userSpaceOnUse" x="0" y="0" width="78" height="51">
<path fill-rule="evenodd" clip-rule="evenodd" d="M55.3629 8.66094C55.3629 8.95102 55.2477 9.22922 55.0426 9.43434C54.8374 9.63945 54.5592 9.75469 54.2691 9.75469H23.7312C23.4411 9.75469 23.1629 9.63945 22.9578 9.43434C22.7527 9.22922 22.6374 8.95102 22.6374 8.66094C22.6374 8.37086 22.7527 8.09266 22.9578 7.88754C23.1629 7.68242 23.4411 7.56719 23.7312 7.56719H54.269C54.4126 7.56717 54.5549 7.59544 54.6876 7.6504C54.8203 7.70536 54.9409 7.78592 55.0425 7.88748C55.1441 7.98905 55.2247 8.10963 55.2796 8.24234C55.3346 8.37505 55.3629 8.51729 55.3629 8.66094ZM76.9527 28.6856C76.7281 31.7372 74.3934 34.0386 71.5224 34.0386H6.47775C3.60665 34.0386 1.27212 31.7372 1.04712 28.6855C0.190247 17.088 0.19384 8.87578 1.05853 3.57938C1.40775 1.43844 2.91118 0 4.79978 0H73.2001C75.0884 0 76.592 1.43844 76.9413 3.57938C77.8062 8.87578 77.8099 17.088 76.9527 28.6856ZM67.086 25.6792C67.086 24.9253 66.4727 24.312 65.7188 24.312H12.2813C11.5274 24.312 10.9142 24.9253 10.9142 25.6792V31.8511H67.086V25.6792ZM74.7827 3.93188C74.6513 3.12719 74.1581 2.1875 73.2002 2.1875H4.79993C3.84197 2.1875 3.34884 3.12719 3.21743 3.93172C2.38087 9.05625 2.38462 17.1005 3.22884 28.5245C3.37072 30.4522 4.73712 31.8511 6.47775 31.8511H8.72665V25.6792C8.72665 23.7192 10.3213 22.1245 12.2813 22.1245H65.7188C67.6788 22.1245 69.2735 23.7192 69.2735 25.6792V31.8511H71.5226C73.2631 31.8511 74.6295 30.4522 74.7713 28.5247C75.6156 17.1006 75.6193 9.05625 74.7827 3.93188ZM39.0001 39.0386C38.71 39.0386 38.4318 39.1538 38.2267 39.3589C38.0216 39.5641 37.9063 39.8423 37.9063 40.1323V49.6381C37.9063 49.9282 38.0216 50.2064 38.2267 50.4115C38.4318 50.6166 38.71 50.7319 39.0001 50.7319C39.2902 50.7319 39.5684 50.6166 39.7735 50.4115C39.9786 50.2064 40.0938 49.9282 40.0938 49.6381V40.1323C40.0938 39.8423 39.9786 39.5641 39.7735 39.3589C39.5684 39.1538 39.2902 39.0386 39.0001 39.0386ZM29.6054 39.0395C29.3156 39.0514 29.0423 39.178 28.8458 39.3913C28.6493 39.6047 28.5455 39.8874 28.5574 40.1772C28.6932 43.4878 27.7524 46.6908 25.976 48.9648C25.8499 49.1263 25.7716 49.3199 25.7502 49.5237C25.7288 49.7274 25.765 49.9331 25.8548 50.1173C25.9445 50.3015 26.0842 50.4567 26.2579 50.5653C26.4317 50.674 26.6324 50.7316 26.8373 50.7317C27.0036 50.732 27.1678 50.6942 27.3173 50.6214C27.4668 50.5485 27.5977 50.4424 27.6999 50.3112C29.7907 47.6347 30.8998 43.9083 30.7431 40.0873C30.7184 39.4839 30.2079 39.0156 29.6054 39.0395ZM19.8159 39.0402C19.2135 39.0073 18.6981 39.4723 18.6668 40.0755C18.4942 43.3892 17.2548 46.5272 15.2667 48.685C15.1226 48.8413 15.0273 49.0361 14.9922 49.2457C14.9571 49.4552 14.9838 49.6705 15.0691 49.8652C15.1544 50.0598 15.2945 50.2254 15.4723 50.3417C15.6502 50.458 15.8581 50.5199 16.0706 50.52C16.3656 50.52 16.6596 50.4014 16.8751 50.1673C19.2031 47.6409 20.6524 44.0042 20.851 40.1895C20.8585 40.0461 20.8377 39.9026 20.7897 39.7672C20.7418 39.6318 20.6676 39.5072 20.5715 39.4005C20.4754 39.2937 20.3592 39.207 20.2295 39.1452C20.0999 39.0833 19.9593 39.0477 19.8159 39.0402ZM49.4429 40.1772C49.4531 39.8884 49.3486 39.6073 49.1522 39.3953C48.9558 39.1833 48.6834 39.0576 48.3947 39.0457C48.1059 39.0339 47.8242 39.1368 47.6111 39.332C47.398 39.5272 47.2708 39.7988 47.2573 40.0875C47.1004 43.9081 48.2098 47.6347 50.3006 50.3114C50.4028 50.4426 50.5337 50.5487 50.6832 50.6215C50.8327 50.6944 50.9969 50.7321 51.1632 50.7319C51.3681 50.7318 51.5688 50.6741 51.7425 50.5655C51.9163 50.4569 52.056 50.3016 52.1457 50.1175C52.2355 49.9333 52.2717 49.7276 52.2503 49.5238C52.2289 49.3201 52.1506 49.1264 52.0245 48.965C50.2479 46.6906 49.3071 43.4877 49.4429 40.1772ZM59.3337 40.0755C59.3023 39.4722 58.7873 39.0075 58.1846 39.0402C57.895 39.0553 57.6232 39.1848 57.429 39.4003C57.2349 39.6158 57.1342 39.8996 57.1493 40.1892C57.3481 44.0039 58.7974 47.6406 61.1252 50.167C61.2276 50.2784 61.3519 50.3672 61.4904 50.4279C61.6289 50.4887 61.7786 50.5199 61.9298 50.5197C62.2044 50.52 62.469 50.4166 62.6706 50.2302C62.8839 50.0336 63.0103 49.7603 63.0222 49.4705C63.034 49.1807 62.9302 48.898 62.7337 48.6847C60.7459 46.5273 59.5065 43.3892 59.3337 40.0755ZM65.5191 7.17641C64.7017 7.17641 64.0348 7.84328 64.0348 8.66078C64.0348 9.47844 64.7017 10.1452 65.5191 10.1452C66.3368 10.1452 67.0035 9.47828 67.0035 8.66078C67.0035 7.84328 66.3368 7.17641 65.5191 7.17641Z" fill="black"/>
</mask>
<g mask="url(#mask0_360_150)">
<rect x="10" y="37.366" width="58" height="15" fill="url(#paint0_linear_360_150)"/>
<rect y="-0.634033" width="78" height="36" fill="#475569"/>
</g>
<defs>
<linearGradient id="paint0_linear_360_150" x1="14.758" y1="44.866" x2="23.6346" y2="18.0382" gradientUnits="userSpaceOnUse">
<stop stop-color="#FBA980"/>
<stop offset="1" stop-color="#F7CB6B"/>
</linearGradient>
</defs>
</svg>
