<svg width="26" height="62" viewBox="0 0 26 62" fill="none" xmlns="http://www.w3.org/2000/svg">
<path d="M4.53664 40.3897C4.09385 40.3897 3.67339 40.1237 3.50036 39.6865C1.84269 35.5339 0.929199 30.7413 0.929199 26.1906C0.929199 20.0734 4.71339 12.6093 6.34129 9.6846C7.2306 8.08646 11.8222 0.110646 14.892 0.092041C14.8957 0.092041 14.8976 0.092041 14.9013 0.092041C15.3832 0.092041 16.9032 0.300413 16.9329 2.89948C16.998 8.58134 18.918 11.4111 20.9515 14.4065C22.9776 17.3906 25.0725 20.4772 25.0725 26.226C25.0725 30.7599 24.159 35.5395 22.5032 39.6846C22.2743 40.2576 21.6232 40.5348 21.052 40.306C20.479 40.0772 20.1999 39.4279 20.4306 38.8548C21.9859 34.9665 22.8418 30.479 22.8418 26.2241C22.8418 21.1599 21.0278 18.4883 19.1059 15.6586C16.9757 12.5218 14.7748 9.27716 14.7022 2.92367C14.7004 2.70041 14.6836 2.53483 14.6632 2.41762C13.6715 2.95158 11.1022 5.67158 8.18688 10.9609C5.04083 16.6688 3.16362 22.3618 3.16362 26.1888C3.16362 30.4623 4.02129 34.9609 5.57664 38.8548C5.80548 39.4279 5.52641 40.0772 4.95339 40.306C4.81571 40.3637 4.67432 40.3897 4.53664 40.3897Z" fill="url(#paint0_linear_360_258)"/>
<path d="M21.4651 38.1571H4.53669C3.92088 38.1571 3.42041 38.6576 3.42041 39.2734V44.2204C3.42041 44.3227 3.4353 44.4269 3.4632 44.5255L4.83064 49.3366V57.4408C4.83064 57.8166 5.02041 58.1683 5.33483 58.3748C6.23343 58.9645 10.8269 61.9059 13.0018 61.9059C15.1767 61.9059 19.7702 58.9645 20.6688 58.3748C20.9832 58.1683 21.173 57.8166 21.173 57.4408V49.3366L22.5404 44.5255C22.5683 44.4269 22.5832 44.3245 22.5832 44.2204V39.2734C22.5813 38.6576 22.0809 38.1571 21.4651 38.1571ZM7.06134 50.3004H18.9385V53.1562H7.06134V50.3004ZM5.65297 40.3897H20.3488V44.0641L19.212 48.0678H6.78971L5.65297 44.0641V40.3897ZM12.9999 59.6734C11.9748 59.6734 9.07809 58.1069 7.06134 56.8325V55.3906H18.9385V56.8343C16.9237 58.1069 14.0288 59.6734 12.9999 59.6734Z" fill="#475569"/>
<defs>
<linearGradient id="paint0_linear_360_258" x1="2.90978" y1="20.2409" x2="33.6211" y2="5.85904" gradientUnits="userSpaceOnUse">
<stop stop-color="#FBA980"/>
<stop offset="1" stop-color="#F7CB6B"/>
</linearGradient>
</defs>
</svg>
