<svg width="34" height="62" viewBox="0 0 34 62" fill="none" xmlns="http://www.w3.org/2000/svg">
<path d="M33.2847 24.1311C32.9926 23.039 32.3377 22.1386 31.4874 21.5228C32.8121 20.3711 33.4447 18.5218 32.9572 16.7042C32.6856 15.6921 32.1014 14.8195 31.2865 14.1888C31.7628 13.8186 32.1684 13.3553 32.4809 12.8158C33.1135 11.7218 33.2809 10.4456 32.9498 9.20834C32.2744 6.68741 29.6735 5.18602 27.1544 5.86136L25.8819 6.20183C26.1274 5.38881 26.1572 4.4995 25.9228 3.62136C25.9228 3.62136 25.9172 3.60276 25.9172 3.6009C25.2419 1.07997 22.6409 -0.421426 20.1219 0.253923L6.53861 3.89299C5.31814 4.22044 4.29675 5.00369 3.66419 6.09764C3.03163 7.1916 2.86419 8.46788 3.19163 9.68834L3.19535 9.70509C3.43163 10.5851 3.90419 11.3386 4.52559 11.9209L4.06233 12.0456C1.5414 12.7209 0.040005 15.3218 0.717214 17.8465L0.720935 17.8614C0.998144 18.8939 1.60093 19.7795 2.44372 20.4121C1.05024 21.5544 0.373026 23.4465 0.86791 25.2958L0.871632 25.3125V25.3144C1.15814 26.3823 1.78884 27.2642 2.61303 27.8781C2.1814 28.2335 1.81303 28.6669 1.52466 29.1674C0.892099 30.2651 0.724655 31.5414 1.0521 32.7656C1.37954 33.9879 2.16279 35.0111 3.26047 35.6437C3.99163 36.066 4.8028 36.2818 5.62326 36.2818C6.03442 36.2818 6.44931 36.2279 6.85861 36.1181L9.45954 35.4223V39.2716C9.45954 39.8874 9.96 40.3879 10.5758 40.3879C11.1916 40.3879 11.6921 39.8874 11.6921 39.2716V33.9674C11.6921 33.9581 11.6902 33.9507 11.6902 33.9414C11.6902 33.919 11.6884 33.8967 11.6865 33.8744C11.6847 33.8558 11.6828 33.839 11.6809 33.8223C11.6791 33.8037 11.6754 33.7869 11.6735 33.7683C11.6698 33.746 11.6642 33.7256 11.6605 33.7032C11.6586 33.6939 11.6567 33.6865 11.6549 33.6772C11.653 33.6716 11.6512 33.666 11.6493 33.6604C11.6437 33.6381 11.6363 33.6158 11.6288 33.5953C11.6233 33.5823 11.6195 33.5674 11.614 33.5544C11.6065 33.5358 11.5972 33.5153 11.5898 33.4967C11.5823 33.4818 11.5749 33.4651 11.5674 33.4502C11.56 33.4353 11.5507 33.4204 11.5414 33.4055C11.5321 33.3888 11.5209 33.3721 11.5098 33.3553C11.5023 33.3423 11.493 33.3311 11.4837 33.3181C11.4707 33.3014 11.4577 33.2828 11.4447 33.266C11.4354 33.2549 11.4261 33.2455 11.4167 33.2344C11.4019 33.2176 11.3888 33.2009 11.3721 33.186C11.3609 33.1749 11.3516 33.1656 11.3405 33.1562C11.3256 33.1414 11.3107 33.1283 11.2958 33.1153C11.2828 33.1042 11.2698 33.0949 11.2549 33.0837C11.24 33.0725 11.227 33.0614 11.2121 33.0521C11.1954 33.0409 11.1786 33.0316 11.1619 33.0204C11.1488 33.013 11.1358 33.0037 11.1209 32.9962C11.1023 32.9851 11.0837 32.9758 11.0651 32.9665C11.0521 32.9609 11.0391 32.9535 11.0261 32.9479C11.0074 32.9386 10.987 32.9311 10.9684 32.9237C10.9535 32.9181 10.9405 32.9125 10.9256 32.9088C10.907 32.9032 10.8884 32.8976 10.8698 32.8921C10.853 32.8865 10.8363 32.8828 10.8177 32.879C10.8009 32.8753 10.7842 32.8716 10.7674 32.8697C10.747 32.866 10.7265 32.8623 10.706 32.8604C10.6912 32.8586 10.6763 32.8567 10.6614 32.8567C10.6391 32.8549 10.6149 32.853 10.5926 32.853C10.587 32.853 10.5814 32.853 10.574 32.853C10.5647 32.853 10.5572 32.8549 10.5479 32.8549C10.5256 32.8549 10.5051 32.8567 10.4828 32.8586C10.4642 32.8604 10.4474 32.8623 10.4288 32.8642C10.4121 32.866 10.3935 32.8697 10.3767 32.8716C10.3544 32.8753 10.334 32.8809 10.3116 32.8846C10.3023 32.8865 10.2949 32.8883 10.2856 32.8902L6.28 33.9618C5.63256 34.1349 4.95721 34.0456 4.37675 33.7107C3.79628 33.3758 3.3814 32.8344 3.20838 32.1888C3.03535 31.5414 3.1228 30.8642 3.45768 30.2837C3.79256 29.7032 4.33396 29.2883 4.9814 29.1135L28.0586 22.9311C29.3926 22.5721 30.7712 23.3683 31.1302 24.7042C31.1879 24.92 31.2177 25.1395 31.2177 25.3553C31.2177 26.4883 30.453 27.4837 29.3572 27.7776L16.066 31.3386C16.0605 31.3404 16.0549 31.3423 16.0493 31.3442C16.027 31.3516 16.0047 31.359 15.9805 31.3665C15.9674 31.3721 15.9544 31.3758 15.9414 31.3814C15.9209 31.3888 15.9023 31.3981 15.8819 31.4074C15.867 31.4149 15.8521 31.4204 15.8372 31.4279C15.8205 31.4372 15.8056 31.4446 15.7907 31.4539C15.774 31.4632 15.7572 31.4725 15.7423 31.4837C15.7293 31.493 15.7163 31.5004 15.7051 31.5097C15.6884 31.5228 15.6716 31.5339 15.6549 31.5469C15.6437 31.5562 15.6326 31.5655 15.6214 31.5749C15.6047 31.5897 15.5898 31.6028 15.5749 31.6176C15.5637 31.6288 15.5544 31.64 15.5433 31.6511C15.5302 31.666 15.5154 31.6809 15.5023 31.6958C15.4912 31.7088 15.48 31.7218 15.4707 31.7367C15.4595 31.7516 15.4484 31.7646 15.4391 31.7795C15.4279 31.7962 15.4186 31.8111 15.4074 31.8279C15.4 31.8409 15.3907 31.8539 15.3833 31.8688C15.374 31.8874 15.3647 31.906 15.3554 31.9246C15.3479 31.9376 15.3423 31.9507 15.3367 31.9656C15.3293 31.9842 15.3219 32.0028 15.3144 32.0232C15.3088 32.0381 15.3033 32.053 15.2977 32.0679C15.2921 32.0865 15.2865 32.1032 15.2809 32.1218C15.2754 32.1386 15.2716 32.1572 15.2679 32.1739C15.2642 32.1907 15.2623 32.2056 15.2586 32.2223C15.2549 32.2428 15.2512 32.2632 15.2493 32.2855C15.2474 32.3004 15.2474 32.3135 15.2456 32.3283C15.2437 32.3507 15.2419 32.3749 15.2419 32.399C15.2419 32.4046 15.2419 32.4102 15.2419 32.4158V39.2697C15.2419 39.8856 15.7423 40.386 16.3581 40.386C16.974 40.386 17.4744 39.8856 17.4744 39.2697V33.2716L18.6447 32.959V39.2697C18.6447 39.8856 19.1451 40.386 19.7609 40.386C20.3767 40.386 20.8772 39.8856 20.8772 39.2697V32.3618L24.4233 31.413V39.2716C24.4233 39.8874 24.9237 40.3879 25.5395 40.3879C26.1554 40.3879 26.6558 39.8874 26.6558 39.2716V30.8158L29.9414 29.9358C32.0102 29.3795 33.4558 27.4967 33.4558 25.3572C33.4484 24.9479 33.3926 24.5349 33.2847 24.1311ZM3.27163 22.8269C3.60466 22.2483 4.14419 21.8353 4.78977 21.6623L6.29117 21.2604C6.36559 21.2437 6.44 21.2288 6.51442 21.2083L27.8837 15.4818C29.1693 15.2158 30.4586 15.9972 30.8065 17.2976C31.1637 18.6297 30.3712 20.0028 29.0391 20.36L6.09024 26.5088C4.76 26.866 3.38698 26.0735 3.02977 24.7432C3.02791 24.7395 3.02419 24.7246 3.02419 24.7246C2.84931 24.079 2.93861 23.4056 3.27163 22.8269ZM6.51628 10.6483C5.93768 10.3153 5.52466 9.77578 5.35163 9.1302L5.34791 9.11346C5.17489 8.46788 5.26419 7.79439 5.59721 7.21578C5.93024 6.63718 6.46977 6.22416 7.11535 6.05113L20.6967 2.41206C20.9126 2.35439 21.1302 2.32648 21.3423 2.32648C22.4456 2.32648 23.4595 3.06323 23.7572 4.17764C23.7572 4.17764 23.7628 4.19625 23.7628 4.19811C24.0958 5.44276 23.4242 6.72462 22.2484 7.17671L8.15535 10.9535C7.58977 11.0409 7.01675 10.9367 6.51628 10.6483ZM4.63721 14.2056L8.6428 13.1321C8.75814 13.1097 8.87349 13.0856 8.98884 13.0539L22.5721 9.41485C22.6856 9.38509 22.7972 9.34788 22.907 9.31067L27.7293 8.01951C27.9451 7.96183 28.1609 7.93392 28.3749 7.93392C29.4781 7.93392 30.4921 8.67439 30.7954 9.80369C30.9684 10.4493 30.8791 11.1228 30.5461 11.7014C30.213 12.28 29.6735 12.693 29.0279 12.866L27.413 13.2995C27.3293 13.3181 27.2456 13.3367 27.16 13.359L5.78326 19.0874C5.18419 19.2102 4.57024 19.1135 4.03814 18.8046C3.45954 18.4716 3.04652 17.9321 2.87349 17.2865L2.86791 17.2697C2.51442 15.9358 3.30698 14.5628 4.63721 14.2056Z" fill="url(#paint0_linear_360_165)"/>
<path d="M26.7004 38.1591H9.77204C9.15623 38.1591 8.65576 38.6595 8.65576 39.2753V44.2223C8.65576 44.3246 8.67065 44.4288 8.69855 44.5274L10.066 49.3386V57.4428C10.066 57.8186 10.2558 58.1702 10.5702 58.3767C11.4688 58.9665 16.0623 61.9098 18.2372 61.9098C20.412 61.9098 25.0055 58.9684 25.9041 58.3767C26.2186 58.1702 26.4083 57.8205 26.4083 57.4428V49.3386L27.7758 44.5274C27.8037 44.4288 27.8186 44.3265 27.8186 44.2223V39.2753C27.8167 38.6577 27.3181 38.1591 26.7004 38.1591ZM12.2986 50.3023H24.1758V53.1581H12.2986V50.3023ZM10.8883 40.3916H25.5841V44.066L24.4474 48.0698H12.0251L10.8883 44.066V40.3916ZM18.2372 59.6753C17.212 59.6753 14.3153 58.1088 12.2986 56.8344V55.3925H24.1758V56.8344C22.1572 58.107 19.2623 59.6753 18.2372 59.6753Z" fill="#475569"/>
<defs>
<linearGradient id="paint0_linear_360_165" x1="3.25371" y1="20.24" x2="39.5147" y2="-2.90147" gradientUnits="userSpaceOnUse">
<stop stop-color="#FBA980"/>
<stop offset="1" stop-color="#F7CB6B"/>
</linearGradient>
</defs>
</svg>
