<svg width="62" height="50" viewBox="0 0 62 50" fill="none" xmlns="http://www.w3.org/2000/svg">
<path d="M59.0871 23.0762C58.9736 23.0762 58.8601 23.0595 58.7485 23.0241L52.075 20.9032C51.4871 20.7172 51.1634 20.0883 51.3494 19.5004C51.5354 18.9125 52.1643 18.5888 52.7522 18.7748L58.1494 20.4902L59.0629 13.2976L56.8117 13.4204C56.1978 13.4558 55.6694 12.9832 55.6359 12.3674C55.6024 11.7516 56.0731 11.2251 56.6889 11.1916L60.2778 10.9944C60.6071 10.9776 60.9308 11.106 61.1559 11.3479C61.381 11.5897 61.4889 11.9209 61.4461 12.2483L60.1941 22.0995C60.1531 22.4288 59.9671 22.7209 59.688 22.8995C59.5075 23.0167 59.2992 23.0762 59.0871 23.0762Z" fill="url(#paint0_linear_360_272)"/>
<path d="M30.1922 35.3758V20.6316C30.1922 20.0158 29.6917 19.5153 29.0759 19.5153C28.4601 19.5153 27.9596 20.0158 27.9596 20.6316V34.2595C27.5224 34.1516 27.0647 34.0921 26.5922 34.0921C26.1215 34.0921 25.6638 34.1498 25.2266 34.2595V20.0009C25.2266 19.3851 24.7261 18.8846 24.1103 18.8846C23.4945 18.8846 22.994 19.3851 22.994 20.0009V35.3758C22.715 35.6046 22.4564 35.8577 22.2257 36.133H8.65729C8.04148 36.133 7.54102 36.6335 7.54102 37.2493C7.54102 37.8651 8.04148 38.3656 8.65729 38.3656H21.0703C20.9513 38.8232 20.888 39.3032 20.888 39.7981C20.888 40.2465 20.9419 40.68 21.0387 41.0986H8.65729C8.04148 41.0986 7.54102 41.5991 7.54102 42.2149C7.54102 42.8307 8.04148 43.3312 8.65729 43.3312H22.1178C23.1633 44.6521 24.7801 45.5042 26.5922 45.5042C29.7382 45.5042 32.2982 42.9442 32.2982 39.7981C32.2982 38.0158 31.4759 36.4232 30.1922 35.3758ZM26.5922 43.2716C24.6778 43.2716 23.1187 41.7144 23.1187 39.7981C23.1187 37.8819 24.6759 36.3246 26.5922 36.3246C28.5085 36.3246 30.0657 37.8819 30.0657 39.7981C30.0657 41.7144 28.5066 43.2716 26.5922 43.2716Z" fill="url(#paint1_linear_360_272)"/>
<path d="M61.8219 6.74696C61.6693 6.37487 61.3289 6.11441 60.9289 6.06231L54.287 5.21952L17.3177 0.497662C16.1624 0.350685 15.0201 0.663242 14.0991 1.3758C13.1782 2.08836 12.5903 3.1172 12.4452 4.27254L12.408 4.5665L10.6554 4.34324C9.81448 4.2372 8.98099 4.46417 8.30936 4.98324C7.6396 5.50231 7.20983 6.25208 7.10378 7.09487L6.60704 11.0112C6.50099 11.8521 6.72797 12.6856 7.24704 13.3572C7.76611 14.0288 8.51587 14.4567 9.35866 14.5628L11.1112 14.786L11.074 15.08C10.927 16.2353 11.2396 17.3777 11.9522 18.2986C12.6647 19.2195 13.6935 19.8074 14.8489 19.9525L47.7438 24.1572C47.967 24.1851 48.1921 24.2 48.4135 24.2C49.5633 24.2 50.674 23.8223 51.5987 23.106C52.7019 22.2521 53.4052 21.0186 53.58 19.6363L53.8052 17.8614L61.6675 7.86138C61.9168 7.54324 61.9763 7.11906 61.8219 6.74696ZM9.6396 12.347C9.39029 12.3153 9.16704 12.1888 9.01262 11.9879C8.8582 11.7888 8.79122 11.5414 8.82285 11.2902L9.3196 7.37394C9.35122 7.12464 9.47773 6.90138 9.67866 6.74696C9.87773 6.59255 10.1252 6.52557 10.3763 6.5572L12.1289 6.78045L11.4498 12.1386L11.3959 12.5702L9.6396 12.347ZM50.2331 21.3405C49.6024 21.8298 48.8191 22.0437 48.0284 21.9414L15.1298 17.7367C14.5661 17.666 14.0638 17.3777 13.7159 16.9293C13.368 16.4809 13.2154 15.9228 13.288 15.3591L13.4647 13.9637C13.4647 13.9618 13.4647 13.96 13.4666 13.9581C13.4666 13.9544 13.4666 13.9525 13.4666 13.9488L13.5205 13.5265L51.4907 18.3749L51.3661 19.3516C51.2656 20.146 50.8638 20.8512 50.2331 21.3405ZM52.2535 16.2223L13.8015 11.3125L14.4787 5.96929C14.4787 5.96371 14.4805 5.95999 14.4805 5.95441C14.4805 5.94882 14.4805 5.94324 14.4824 5.93952L14.6573 4.55348C14.728 3.98975 15.0163 3.48743 15.4647 3.13952C15.9131 2.79162 16.4712 2.63906 17.0349 2.71161L54.0042 7.43534L58.6926 8.03069L52.2535 16.2223Z" fill="#475569"/>
<path d="M4.87142 49.5376H1.21003C0.594215 49.5376 0.09375 49.0372 0.09375 48.4214V31.0446C0.09375 30.4288 0.594215 29.9283 1.21003 29.9283H4.87142C7.57468 29.9283 9.77375 32.1274 9.77375 34.8307V44.6372C9.77375 47.3386 7.57468 49.5376 4.87142 49.5376ZM2.32631 47.3051H4.87142C6.34305 47.3051 7.54119 46.1069 7.54119 44.6353V34.8288C7.54119 33.3572 6.34305 32.159 4.87142 32.159H2.32631V47.3051Z" fill="#475569"/>
<defs>
<linearGradient id="paint0_linear_360_272" x1="52.1302" y1="17.0346" x2="63.1344" y2="9.80355" gradientUnits="userSpaceOnUse">
<stop stop-color="#FBA980"/>
<stop offset="1" stop-color="#F7CB6B"/>
</linearGradient>
<linearGradient id="paint1_linear_360_272" x1="9.57196" y1="32.1944" x2="34.6945" y2="13.9317" gradientUnits="userSpaceOnUse">
<stop stop-color="#FBA980"/>
<stop offset="1" stop-color="#F7CB6B"/>
</linearGradient>
</defs>
</svg>
