<svg width="42" height="10" viewBox="0 0 42 10" fill="none" xmlns="http://www.w3.org/2000/svg">
<path d="M2.268 7.896H5.088V9H0.9V0.659999H2.268V7.896ZM9.10003 9.108C8.47603 9.108 7.91203 8.968 7.40803 8.688C6.90403 8.4 6.50803 8 6.22003 7.488C5.93203 6.968 5.78803 6.368 5.78803 5.688C5.78803 5.016 5.93603 4.42 6.23203 3.9C6.52803 3.38 6.93203 2.98 7.44403 2.7C7.95603 2.42 8.52803 2.28 9.16003 2.28C9.79203 2.28 10.364 2.42 10.876 2.7C11.388 2.98 11.792 3.38 12.088 3.9C12.384 4.42 12.532 5.016 12.532 5.688C12.532 6.36 12.38 6.956 12.076 7.476C11.772 7.996 11.356 8.4 10.828 8.688C10.308 8.968 9.73203 9.108 9.10003 9.108ZM9.10003 7.92C9.45203 7.92 9.78003 7.836 10.084 7.668C10.396 7.5 10.648 7.248 10.84 6.912C11.032 6.576 11.128 6.168 11.128 5.688C11.128 5.208 11.036 4.804 10.852 4.476C10.668 4.14 10.424 3.888 10.12 3.72C9.81603 3.552 9.48803 3.468 9.13603 3.468C8.78403 3.468 8.45603 3.552 8.15203 3.72C7.85603 3.888 7.62003 4.14 7.44403 4.476C7.26803 4.804 7.18003 5.208 7.18003 5.688C7.18003 6.4 7.36003 6.952 7.72003 7.344C8.08803 7.728 8.54803 7.92 9.10003 7.92ZM13.4284 5.688C13.4284 5.008 13.5644 4.412 13.8364 3.9C14.1164 3.38 14.5004 2.98 14.9884 2.7C15.4764 2.42 16.0364 2.28 16.6684 2.28C17.4684 2.28 18.1284 2.472 18.6484 2.856C19.1764 3.232 19.5324 3.772 19.7164 4.476H18.2404C18.1204 4.148 17.9284 3.892 17.6644 3.708C17.4004 3.524 17.0684 3.432 16.6684 3.432C16.1084 3.432 15.6604 3.632 15.3244 4.032C14.9964 4.424 14.8324 4.976 14.8324 5.688C14.8324 6.4 14.9964 6.956 15.3244 7.356C15.6604 7.756 16.1084 7.956 16.6684 7.956C17.4604 7.956 17.9844 7.608 18.2404 6.912H19.7164C19.5244 7.584 19.1644 8.12 18.6364 8.52C18.1084 8.912 17.4524 9.108 16.6684 9.108C16.0364 9.108 15.4764 8.968 14.9884 8.688C14.5004 8.4 14.1164 8 13.8364 7.488C13.5644 6.968 13.4284 6.368 13.4284 5.688ZM23.6957 5.7L26.7437 9H24.8957L22.4477 6.156V9H21.0797V0.12H22.4477V5.28L24.8477 2.388H26.7437L23.6957 5.7ZM33.7842 5.532C33.7842 5.78 33.7682 6.004 33.7362 6.204H28.6842C28.7242 6.732 28.9202 7.156 29.2722 7.476C29.6242 7.796 30.0562 7.956 30.5682 7.956C31.3042 7.956 31.8242 7.648 32.1282 7.032H33.6042C33.4042 7.64 33.0402 8.14 32.5122 8.532C31.9922 8.916 31.3442 9.108 30.5682 9.108C29.9362 9.108 29.3682 8.968 28.8642 8.688C28.3682 8.4 27.9762 8 27.6882 7.488C27.4082 6.968 27.2682 6.368 27.2682 5.688C27.2682 5.008 27.4042 4.412 27.6762 3.9C27.9562 3.38 28.3442 2.98 28.8402 2.7C29.3442 2.42 29.9202 2.28 30.5682 2.28C31.1922 2.28 31.7482 2.416 32.2362 2.688C32.7242 2.96 33.1042 3.344 33.3762 3.84C33.6482 4.328 33.7842 4.892 33.7842 5.532ZM32.3562 5.1C32.3482 4.596 32.1682 4.192 31.8162 3.888C31.4642 3.584 31.0282 3.432 30.5082 3.432C30.0362 3.432 29.6322 3.584 29.2962 3.888C28.9602 4.184 28.7602 4.588 28.6962 5.1H32.3562ZM34.6745 5.664C34.6745 5 34.8105 4.412 35.0825 3.9C35.3625 3.388 35.7385 2.992 36.2105 2.712C36.6905 2.424 37.2225 2.28 37.8065 2.28C38.2385 2.28 38.6625 2.376 39.0785 2.568C39.5025 2.752 39.8385 3 40.0865 3.312V0.12H41.4665V9H40.0865V8.004C39.8625 8.324 39.5505 8.588 39.1505 8.796C38.7585 9.004 38.3065 9.108 37.7945 9.108C37.2185 9.108 36.6905 8.964 36.2105 8.676C35.7385 8.38 35.3625 7.972 35.0825 7.452C34.8105 6.924 34.6745 6.328 34.6745 5.664ZM40.0865 5.688C40.0865 5.232 39.9905 4.836 39.7985 4.5C39.6145 4.164 39.3705 3.908 39.0665 3.732C38.7625 3.556 38.4345 3.468 38.0825 3.468C37.7305 3.468 37.4025 3.556 37.0985 3.732C36.7945 3.9 36.5465 4.152 36.3545 4.488C36.1705 4.816 36.0785 5.208 36.0785 5.664C36.0785 6.12 36.1705 6.52 36.3545 6.864C36.5465 7.208 36.7945 7.472 37.0985 7.656C37.4105 7.832 37.7385 7.92 38.0825 7.92C38.4345 7.92 38.7625 7.832 39.0665 7.656C39.3705 7.48 39.6145 7.224 39.7985 6.888C39.9905 6.544 40.0865 6.144 40.0865 5.688Z" fill="#64748B"/>
</svg>
