<svg width="42" height="54" viewBox="0 0 42 54" fill="none" xmlns="http://www.w3.org/2000/svg">
<path d="M35.3906 25.1247C34.7432 25.1247 34.2185 24.6 34.2185 23.9526V12.6093C34.2185 7.0019 29.3366 2.43818 23.3348 2.43818H18.6669C12.665 2.43818 7.78315 7.00004 7.78315 12.6093V23.9526C7.78315 24.6 7.2585 25.1247 6.61106 25.1247C5.96362 25.1247 5.43896 24.6 5.43896 23.9526V12.6093C5.43896 5.70888 11.3738 0.0939941 18.6669 0.0939941H23.3348C30.6297 0.0939941 36.5627 5.70888 36.5627 12.6093V23.9526C36.5627 24.6 36.038 25.1247 35.3906 25.1247Z" fill="url(#paint0_linear_360_244)"/>
<path d="M32.6891 53.9061H9.31046C4.60162 53.9061 0.769063 50.0754 0.769063 45.3666L0.763481 31.5582C0.763481 29.8242 0.76162 24.1554 0.767202 24.0214C0.795109 23.3461 1.34767 22.7991 2.02488 22.7768C2.16069 22.7731 8.79511 22.7731 9.55046 22.7731H32.4063C32.4807 22.7731 39.7905 22.7731 39.9467 22.7768C40.6407 22.7954 41.2044 23.3498 41.2305 24.0363C41.236 24.1796 41.2342 30.3433 41.2342 31.5787L41.2286 45.3666C41.2286 50.0754 37.3979 53.9061 32.6891 53.9061ZM3.10767 25.1191C3.10581 26.3507 3.10581 28.6187 3.10767 31.5582L3.11325 45.3666C3.11511 48.7824 5.89464 51.5619 9.31046 51.5619H32.6872C36.103 51.5619 38.8844 48.7824 38.8844 45.3666L38.89 31.5787C38.8919 28.6261 38.89 26.3489 38.89 25.1191C37.6416 25.1173 35.3086 25.1173 32.4063 25.1173H9.55046C6.67604 25.1173 4.36348 25.1173 3.10767 25.1191Z" fill="#475569"/>
<path d="M26.0844 44.4828H15.9133C15.331 44.4828 14.8584 44.0103 14.8584 43.4279V33.2568C14.8584 32.6745 15.331 32.2019 15.9133 32.2019H26.0844C26.6668 32.2019 27.1393 32.6745 27.1393 33.2568V43.4279C27.1393 44.0103 26.6668 44.4828 26.0844 44.4828ZM16.9682 42.3731H25.0296V34.3117H16.9682V42.3731Z" fill="url(#paint1_linear_360_244)"/>
<defs>
<linearGradient id="paint0_linear_360_244" x1="7.99218" y1="12.6093" x2="32.8166" y2="-11.5173" gradientUnits="userSpaceOnUse">
<stop stop-color="#FBA980"/>
<stop offset="1" stop-color="#F7CB6B"/>
</linearGradient>
<linearGradient id="paint1_linear_360_244" x1="15.8659" y1="38.3424" x2="27.6898" y2="29.1004" gradientUnits="userSpaceOnUse">
<stop stop-color="#FBA980"/>
<stop offset="1" stop-color="#F7CB6B"/>
</linearGradient>
</defs>
</svg>
