<svg width="48" height="52" viewBox="0 0 48 52" fill="none" xmlns="http://www.w3.org/2000/svg">
<path d="M17.615 7.05676H8.86335C8.24754 7.05676 7.74707 7.55723 7.74707 8.17304C7.74707 8.78886 8.24754 9.28932 8.86335 9.28932H17.615C18.2308 9.28932 18.7313 8.78886 18.7313 8.17304C18.7313 7.55723 18.2326 7.05676 17.615 7.05676Z" fill="url(#paint0_linear_360_180)"/>
<path d="M29.0791 6.93583C28.9991 6.88187 28.9116 6.83536 28.8223 6.79815C28.733 6.7628 28.64 6.73304 28.5451 6.71443C28.0595 6.61769 27.546 6.77583 27.2019 7.12001C26.9246 7.39722 26.7646 7.78048 26.7646 8.17304C26.7646 8.26978 26.774 8.36838 26.7944 8.46327C26.813 8.56001 26.8409 8.65304 26.8781 8.74234C26.9153 8.83164 26.9619 8.91908 27.0158 8.99908C27.0698 9.08094 27.133 9.15722 27.2019 9.22606C27.2688 9.2949 27.3451 9.35629 27.427 9.41025C27.507 9.4642 27.5944 9.51071 27.6837 9.54792C27.7749 9.58513 27.8679 9.61304 27.9628 9.63164C28.0577 9.65211 28.1563 9.66141 28.253 9.66141C28.3498 9.66141 28.4484 9.65211 28.5433 9.63164C28.64 9.61304 28.733 9.58513 28.8223 9.54792C28.9116 9.51071 28.9991 9.4642 29.0791 9.41025C29.1609 9.35629 29.2372 9.2949 29.306 9.22606C29.3749 9.15722 29.4363 9.08094 29.4902 8.99908C29.5442 8.91908 29.5907 8.83164 29.6279 8.74234C29.6651 8.65304 29.693 8.56001 29.7135 8.46327C29.7321 8.36838 29.7414 8.26978 29.7414 8.17304C29.7414 7.78234 29.5833 7.39722 29.306 7.12001C29.2372 7.05304 29.1609 6.98978 29.0791 6.93583Z" fill="url(#paint1_linear_360_180)"/>
<path d="M33.4047 6.71443C33.3098 6.73304 33.2149 6.7628 33.1256 6.79815C33.0363 6.83536 32.9489 6.88187 32.8689 6.93583C32.787 6.98978 32.7107 7.05304 32.6438 7.12001C32.3665 7.39722 32.2065 7.78048 32.2065 8.17304C32.2065 8.26978 32.2158 8.36838 32.2363 8.46327C32.2549 8.56001 32.2828 8.65304 32.32 8.74234C32.3572 8.83164 32.4038 8.91908 32.4577 8.99908C32.5117 9.08094 32.5749 9.15722 32.6438 9.22606C32.7107 9.2949 32.787 9.35629 32.8689 9.41025C32.9489 9.4642 33.0363 9.51071 33.1256 9.54792C33.2149 9.58513 33.3098 9.61304 33.4047 9.63164C33.4996 9.65211 33.5982 9.66141 33.6949 9.66141C33.7917 9.66141 33.8903 9.65211 33.9852 9.63164C34.08 9.61304 34.1749 9.58513 34.2642 9.54792C34.3535 9.51071 34.441 9.4642 34.521 9.41025C34.6028 9.35629 34.6791 9.2949 34.7479 9.22606C34.8168 9.15722 34.8782 9.08094 34.9321 8.99908C34.9861 8.91908 35.0326 8.83164 35.0698 8.74234C35.107 8.65304 35.1349 8.56001 35.1554 8.46327C35.174 8.36838 35.1833 8.26978 35.1833 8.17304C35.1833 7.78048 35.0251 7.39722 34.7479 7.12001C34.4019 6.77583 33.8884 6.61769 33.4047 6.71443Z" fill="url(#paint2_linear_360_180)"/>
<path d="M40.1898 7.12001C39.8438 6.77583 39.3303 6.61769 38.8466 6.71443C38.7517 6.73304 38.6568 6.7628 38.5675 6.79815C38.4782 6.83536 38.3908 6.88187 38.3108 6.93583C38.2289 6.98978 38.1526 7.05304 38.0856 7.12001C37.8084 7.39722 37.6484 7.78048 37.6484 8.17304C37.6484 8.26978 37.6577 8.36838 37.6782 8.46327C37.6968 8.56001 37.7247 8.65304 37.7619 8.74234C37.7991 8.83164 37.8456 8.91908 37.8996 8.99908C37.9536 9.08094 38.0168 9.15722 38.0856 9.22606C38.1526 9.2949 38.2289 9.35629 38.3108 9.41025C38.3908 9.4642 38.4782 9.51071 38.5675 9.54792C38.6568 9.58513 38.7517 9.61304 38.8466 9.63164C38.9415 9.65211 39.0401 9.66141 39.1368 9.66141C39.5294 9.66141 39.9126 9.50327 40.1898 9.22606C40.2587 9.15722 40.3201 9.08094 40.374 8.99908C40.428 8.91908 40.4745 8.83164 40.5117 8.74234C40.5489 8.65304 40.5768 8.56001 40.5973 8.46327C40.6159 8.36838 40.6252 8.26978 40.6252 8.17304C40.6252 7.78048 40.467 7.39722 40.1898 7.12001Z" fill="url(#paint3_linear_360_180)"/>
<path d="M46.3424 0.0595703H1.65778C1.04197 0.0595703 0.541504 0.560036 0.541504 1.17585V45.8605C0.541504 46.4763 1.04197 46.9768 1.65778 46.9768H3.02336V50.8261C3.02336 51.4419 3.52383 51.9424 4.13964 51.9424H43.8587C44.4745 51.9424 44.975 51.4419 44.975 50.8261V46.9768H46.3406C46.9564 46.9768 47.4568 46.4763 47.4568 45.8605V1.17585C47.4587 0.558175 46.9582 0.0595703 46.3424 0.0595703ZM42.7443 49.7079H5.25592V46.9749H42.7424V49.7079H42.7443ZM45.2262 44.7442H43.8606H4.13964H2.77406V2.29213H45.2262V44.7442Z" fill="#475569"/>
<path d="M8.86335 41.4791H39.1368C39.7526 41.4791 40.2531 40.9786 40.2531 40.3628V14.413C40.2531 13.7972 39.7526 13.2968 39.1368 13.2968H8.86335C8.24754 13.2968 7.74707 13.7972 7.74707 14.413V40.3628C7.74707 40.9805 8.24567 41.4791 8.86335 41.4791ZM9.97963 39.2465V35.7861H38.0206V39.2465H9.97963ZM38.0206 15.5293V33.5535H9.97963V15.5293H38.0206Z" fill="#475569"/>
<path d="M16.4337 20.8112H31.5667C32.1825 20.8112 32.683 20.3107 32.683 19.6949C32.683 19.0791 32.1825 18.5786 31.5667 18.5786H16.4337C15.8178 18.5786 15.3174 19.0791 15.3174 19.6949C15.3174 20.3107 15.816 20.8112 16.4337 20.8112Z" fill="#475569"/>
<defs>
<linearGradient id="paint0_linear_360_180" x1="8.64815" y1="8.17304" x2="9.72718" y2="4.02351" gradientUnits="userSpaceOnUse">
<stop stop-color="#FBA980"/>
<stop offset="1" stop-color="#F7CB6B"/>
</linearGradient>
<linearGradient id="paint1_linear_360_180" x1="27.0088" y1="8.17391" x2="29.8736" y2="5.93346" gradientUnits="userSpaceOnUse">
<stop stop-color="#FBA980"/>
<stop offset="1" stop-color="#F7CB6B"/>
</linearGradient>
<linearGradient id="paint2_linear_360_180" x1="32.4507" y1="8.17391" x2="35.3155" y2="5.93346" gradientUnits="userSpaceOnUse">
<stop stop-color="#FBA980"/>
<stop offset="1" stop-color="#F7CB6B"/>
</linearGradient>
<linearGradient id="paint3_linear_360_180" x1="37.8926" y1="8.17391" x2="40.7574" y2="5.93346" gradientUnits="userSpaceOnUse">
<stop stop-color="#FBA980"/>
<stop offset="1" stop-color="#F7CB6B"/>
</linearGradient>
</defs>
</svg>
