<svg width="32" height="32" viewBox="0 0 32 32" fill="none" xmlns="http://www.w3.org/2000/svg">
<rect width="32" height="32" rx="16" fill="#F1F5F9"/>
<g clip-path="url(#clip0_360_126)">
<path d="M23.0695 23.1203C19.1618 27.0355 12.8377 27.0349 8.93051 23.1203C5.02285 19.2048 5.02348 12.8683 8.93051 8.95364C9.23551 8.64785 9.73004 8.64785 10.0351 8.95364C10.3402 9.25924 10.3402 9.75478 10.0351 10.0604C6.73813 13.3638 6.73859 18.7104 10.0351 22.0134C13.3322 25.3171 18.6684 25.3165 21.9648 22.0135C25.262 18.7099 25.2615 13.3633 21.9648 10.0604C21.6598 9.75478 21.6598 9.25912 21.9648 8.95364C22.2699 8.64801 22.7644 8.64785 23.0695 8.95364C26.9772 12.8689 26.9766 19.2054 23.0695 23.1203ZM16 16.8195C16.4314 16.8195 16.7811 16.4691 16.7811 16.0369V6.80221C16.7811 6.37 16.4314 6.01959 16 6.01959C15.5687 6.01959 15.2189 6.37 15.2189 6.80221V16.0369C15.2189 16.4691 15.5687 16.8195 16 16.8195Z" fill="#34D399"/>
</g>
<defs>
<clipPath id="clip0_360_126">
<rect width="20" height="20" fill="white" transform="translate(6 6)"/>
</clipPath>
</defs>
</svg>
