<svg width="62" height="62" viewBox="0 0 62 62" fill="none" xmlns="http://www.w3.org/2000/svg">
<path d="M26.0342 61.9061H1.21003C0.594215 61.9061 0.09375 61.4056 0.09375 60.7898V1.21027C0.09375 0.594459 0.594215 0.0939941 1.21003 0.0939941H26.0342C26.65 0.0939941 27.1505 0.594459 27.1505 1.21027V60.7898C27.1505 61.4056 26.6519 61.9061 26.0342 61.9061ZM2.32631 59.6735H24.9179V2.32655H2.32631V59.6735Z" fill="#475569"/>
<path d="M13.6231 56.8456C8.08817 56.8456 3.58398 52.3414 3.58398 46.8065C3.58398 41.2716 8.08817 36.7675 13.6231 36.7675C19.1579 36.7675 23.6621 41.2716 23.6621 46.8065C23.6603 52.3414 19.1579 56.8456 13.6231 56.8456ZM13.6231 39C9.31794 39 5.81654 42.5014 5.81654 46.8065C5.81654 51.1116 9.31794 54.613 13.6231 54.613C17.9282 54.613 21.4296 51.1116 21.4296 46.8065C21.4277 42.5014 17.9263 39 13.6231 39Z" fill="#475569"/>
<path d="M13.6229 50.613C11.5243 50.613 9.81641 48.9051 9.81641 46.8065C9.81641 44.7079 11.5243 43 13.6229 43C15.7215 43 17.4294 44.7079 17.4294 46.8065C17.4294 48.9051 15.7215 50.613 13.6229 50.613ZM13.6229 45.2326C12.7541 45.2326 12.049 45.9395 12.049 46.8065C12.049 47.6735 12.7559 48.3805 13.6229 48.3805C14.4899 48.3805 15.1969 47.6735 15.1969 46.8065C15.1969 45.9395 14.4899 45.2326 13.6229 45.2326Z" fill="url(#paint0_linear_360_201)"/>
<path d="M48.3765 56.8456C42.8416 56.8456 38.3374 52.3414 38.3374 46.8065C38.3374 41.2716 42.8416 36.7675 48.3765 36.7675C53.9114 36.7675 58.4155 41.2716 58.4155 46.8065C58.4155 52.3414 53.9132 56.8456 48.3765 56.8456ZM48.3765 39C44.0714 39 40.57 42.5014 40.57 46.8065C40.57 51.1116 44.0714 54.613 48.3765 54.613C52.6816 54.613 56.183 51.1116 56.183 46.8065C56.183 42.5014 52.6816 39 48.3765 39Z" fill="#475569"/>
<path d="M48.3763 50.613C46.2777 50.613 44.5698 48.9051 44.5698 46.8065C44.5698 44.7079 46.2777 43 48.3763 43C50.4749 43 52.1828 44.7079 52.1828 46.8065C52.1828 48.9051 50.4768 50.613 48.3763 50.613ZM48.3763 45.2326C47.5075 45.2326 46.8024 45.9395 46.8024 46.8065C46.8024 47.6735 47.5094 48.3805 48.3763 48.3805C49.2433 48.3805 49.9503 47.6735 49.9503 46.8065C49.9503 45.9395 49.2452 45.2326 48.3763 45.2326Z" fill="url(#paint1_linear_360_201)"/>
<path d="M13.6233 18.0232C10.734 18.0232 8.38232 15.6716 8.38232 12.7823C8.38232 9.89301 10.734 7.54138 13.6233 7.54138C16.5126 7.54138 18.8642 9.89301 18.8642 12.7823C18.8623 15.6716 16.5126 18.0232 13.6233 18.0232ZM13.6233 9.77394C11.9656 9.77394 10.6149 11.1228 10.6149 12.7823C10.6149 14.44 11.9637 15.7907 13.6233 15.7907C15.2828 15.7907 16.6316 14.4418 16.6316 12.7823C16.6298 11.1228 15.2809 9.77394 13.6233 9.77394Z" fill="#475569"/>
<path d="M13.6233 31.7442C10.734 31.7442 8.38232 29.3926 8.38232 26.5033C8.38232 23.614 10.734 21.2623 13.6233 21.2623C16.5126 21.2623 18.8642 23.614 18.8642 26.5033C18.8623 29.3926 16.5126 31.7442 13.6233 31.7442ZM13.6233 23.4967C11.9656 23.4967 10.6149 24.8456 10.6149 26.5051C10.6149 28.1647 11.9637 29.5135 13.6233 29.5135C15.2828 29.5135 16.6316 28.1647 16.6316 26.5051C16.6298 24.8456 15.2809 23.4967 13.6233 23.4967Z" fill="#475569"/>
<path d="M60.7896 61.9061H35.9654C35.3496 61.9061 34.8491 61.4056 34.8491 60.7898V1.21027C34.8491 0.594459 35.3496 0.0939941 35.9654 0.0939941H60.7896C61.4054 0.0939941 61.9059 0.594459 61.9059 1.21027V60.7898C61.9059 61.4056 61.4054 61.9061 60.7896 61.9061ZM37.0817 59.6735H59.6733V2.32655H37.0817V59.6735Z" fill="#475569"/>
<path d="M48.3767 18.0232C45.4874 18.0232 43.1357 15.6716 43.1357 12.7823C43.1357 9.89301 45.4874 7.54138 48.3767 7.54138C51.266 7.54138 53.6176 9.89301 53.6176 12.7823C53.6176 15.6716 51.266 18.0232 48.3767 18.0232ZM48.3767 9.77394C46.719 9.77394 45.3683 11.1228 45.3683 12.7823C45.3683 14.44 46.7171 15.7907 48.3767 15.7907C50.0362 15.7907 51.385 14.4418 51.385 12.7823C51.385 11.1228 50.0362 9.77394 48.3767 9.77394Z" fill="#475569"/>
<path d="M48.3767 31.7442C45.4874 31.7442 43.1357 29.3926 43.1357 26.5033C43.1357 23.614 45.4874 21.2623 48.3767 21.2623C51.266 21.2623 53.6176 23.614 53.6176 26.5033C53.6176 29.3926 51.266 31.7442 48.3767 31.7442ZM48.3767 23.4967C46.719 23.4967 45.3683 24.8456 45.3683 26.5051C45.3683 28.1647 46.7171 29.5135 48.3767 29.5135C50.0362 29.5135 51.385 28.1647 51.385 26.5051C51.385 24.8456 50.0362 23.4967 48.3767 23.4967Z" fill="#475569"/>
<defs>
<linearGradient id="paint0_linear_360_201" x1="10.4409" y1="46.8065" x2="17.7707" y2="41.0774" gradientUnits="userSpaceOnUse">
<stop stop-color="#FBA980"/>
<stop offset="1" stop-color="#F7CB6B"/>
</linearGradient>
<linearGradient id="paint1_linear_360_201" x1="45.1944" y1="46.8065" x2="52.5241" y2="41.0774" gradientUnits="userSpaceOnUse">
<stop stop-color="#FBA980"/>
<stop offset="1" stop-color="#F7CB6B"/>
</linearGradient>
</defs>
</svg>
