<svg width="62" height="42" viewBox="0 0 62 42" fill="none" xmlns="http://www.w3.org/2000/svg">
<path d="M60.7896 0.0232544H1.21003C0.594215 0.0232544 0.09375 0.523719 0.09375 1.13953V35.8949C0.09375 36.5107 0.594215 37.0112 1.21003 37.0112H12.4082L8.03793 39.9321C7.52631 40.2744 7.38677 40.9684 7.73096 41.48C7.94677 41.8019 8.30026 41.9767 8.65933 41.9767C8.87328 41.9767 9.08724 41.9153 9.27886 41.7888L16.4268 37.0112H22.6928V37.346C22.6928 37.9619 23.1933 38.4623 23.8091 38.4623H38.4491C39.0649 38.4623 39.5654 37.9619 39.5654 37.346V37.0112H45.5765L52.7244 41.7888C52.9142 41.9153 53.13 41.9767 53.344 41.9767C53.7049 41.9767 54.0584 41.8019 54.2723 41.48C54.6147 40.9665 54.477 40.2744 53.9654 39.9321L49.5951 37.0112H60.7933C61.4091 37.0112 61.9096 36.5107 61.9096 35.8949V1.13953C61.9058 0.523719 61.4054 0.0232544 60.7896 0.0232544ZM59.6733 34.7786H45.9096C45.9077 34.7786 45.9077 34.7786 45.9058 34.7786H16.0956C16.0937 34.7786 16.09 34.7786 16.0882 34.7786H2.32631V2.25581H59.6733V34.7786Z" fill="#475569"/>
<path d="M55.7998 21.1079C55.5133 21.1079 55.2286 20.9981 55.011 20.7804L41.1263 6.89393C40.691 6.45858 40.691 5.75161 41.1263 5.31626C41.5617 4.88091 42.2686 4.88091 42.7059 5.31626L56.5905 19.2028C57.0258 19.6381 57.0258 20.3451 56.5905 20.7804C56.371 20.9981 56.0845 21.1079 55.7998 21.1079Z" fill="url(#paint0_linear_360_132)"/>
<path d="M55.8781 14.3191C55.5916 14.3191 55.3069 14.2093 55.0892 13.9916L47.9916 6.89396C47.5562 6.45861 47.5562 5.75164 47.9916 5.31443C48.4269 4.87908 49.1339 4.87908 49.5692 5.31443L56.6669 12.4121C57.1022 12.8474 57.1022 13.5544 56.6669 13.9916C56.4492 14.2093 56.1627 14.3191 55.8781 14.3191Z" fill="url(#paint1_linear_360_132)"/>
<path d="M29.1842 15.9507H22.4102C21.7944 15.9507 21.2939 16.4511 21.2939 17.067C21.2939 17.6828 21.7944 18.1832 22.4102 18.1832H24.68V24.6614C24.68 25.2772 25.1805 25.7777 25.7963 25.7777C26.4121 25.7777 26.9126 25.2772 26.9126 24.6614V18.1832H29.1823C29.7981 18.1832 30.2986 17.6828 30.2986 17.067C30.2986 16.4511 29.8 15.9507 29.1842 15.9507Z" fill="url(#paint2_linear_360_132)"/>
<path d="M40.0288 15.8112C39.4613 15.5693 38.8064 15.8316 38.5627 16.3972L36.2502 21.7963L33.9376 16.3972C33.6957 15.8298 33.039 15.5674 32.4715 15.8112C31.9041 16.053 31.6418 16.7098 31.8855 17.2772L35.2232 25.0726C35.3999 25.4837 35.8036 25.7498 36.2502 25.7498C36.6967 25.7498 37.1004 25.4837 37.2771 25.0726L40.6148 17.2772C40.8585 16.7116 40.5962 16.0549 40.0288 15.8112Z" fill="url(#paint3_linear_360_132)"/>
<defs>
<linearGradient id="paint0_linear_360_132" x1="42.122" y1="13.0488" x2="57.6402" y2="0.920068" gradientUnits="userSpaceOnUse">
<stop stop-color="#FBA980"/>
<stop offset="1" stop-color="#F7CB6B"/>
</linearGradient>
<linearGradient id="paint1_linear_360_132" x1="48.4303" y1="9.6535" x2="57.4136" y2="2.63398" gradientUnits="userSpaceOnUse">
<stop stop-color="#FBA980"/>
<stop offset="1" stop-color="#F7CB6B"/>
</linearGradient>
<linearGradient id="paint2_linear_360_132" x1="22.0326" y1="20.8642" x2="31.2636" y2="14.2527" gradientUnits="userSpaceOnUse">
<stop stop-color="#FBA980"/>
<stop offset="1" stop-color="#F7CB6B"/>
</linearGradient>
<linearGradient id="paint3_linear_360_132" x1="32.5255" y1="20.7349" x2="41.8499" y2="14.2593" gradientUnits="userSpaceOnUse">
<stop stop-color="#FBA980"/>
<stop offset="1" stop-color="#F7CB6B"/>
</linearGradient>
</defs>
</svg>
