<svg width="41" height="10" viewBox="0 0 41 10" fill="none" xmlns="http://www.w3.org/2000/svg">
<path d="M2.256 0.659999V5.976C2.256 6.608 2.42 7.084 2.748 7.404C3.084 7.724 3.548 7.884 4.14 7.884C4.74 7.884 5.204 7.724 5.532 7.404C5.868 7.084 6.036 6.608 6.036 5.976V0.659999H7.404V5.952C7.404 6.632 7.256 7.208 6.96 7.68C6.664 8.152 6.268 8.504 5.772 8.736C5.276 8.968 4.728 9.084 4.128 9.084C3.528 9.084 2.98 8.968 2.484 8.736C1.996 8.504 1.608 8.152 1.32 7.68C1.032 7.208 0.888 6.632 0.888 5.952V0.659999H2.256ZM12.5212 2.28C13.0412 2.28 13.5052 2.388 13.9132 2.604C14.3292 2.82 14.6532 3.14 14.8852 3.564C15.1172 3.988 15.2332 4.5 15.2332 5.1V9H13.8772V5.304C13.8772 4.712 13.7292 4.26 13.4332 3.948C13.1372 3.628 12.7332 3.468 12.2212 3.468C11.7092 3.468 11.3012 3.628 10.9972 3.948C10.7012 4.26 10.5532 4.712 10.5532 5.304V9H9.18516V2.388H10.5532V3.144C10.7772 2.872 11.0612 2.66 11.4052 2.508C11.7572 2.356 12.1292 2.28 12.5212 2.28ZM18.3461 0.12V9H16.9781V0.12H18.3461ZM23.0102 9.108C22.3862 9.108 21.8222 8.968 21.3182 8.688C20.8142 8.4 20.4182 8 20.1302 7.488C19.8422 6.968 19.6982 6.368 19.6982 5.688C19.6982 5.016 19.8462 4.42 20.1422 3.9C20.4382 3.38 20.8422 2.98 21.3542 2.7C21.8662 2.42 22.4382 2.28 23.0702 2.28C23.7022 2.28 24.2742 2.42 24.7862 2.7C25.2982 2.98 25.7022 3.38 25.9982 3.9C26.2942 4.42 26.4422 5.016 26.4422 5.688C26.4422 6.36 26.2902 6.956 25.9862 7.476C25.6822 7.996 25.2662 8.4 24.7382 8.688C24.2182 8.968 23.6422 9.108 23.0102 9.108ZM23.0102 7.92C23.3622 7.92 23.6902 7.836 23.9942 7.668C24.3062 7.5 24.5582 7.248 24.7502 6.912C24.9422 6.576 25.0382 6.168 25.0382 5.688C25.0382 5.208 24.9462 4.804 24.7622 4.476C24.5782 4.14 24.3342 3.888 24.0302 3.72C23.7262 3.552 23.3982 3.468 23.0462 3.468C22.6942 3.468 22.3662 3.552 22.0622 3.72C21.7662 3.888 21.5302 4.14 21.3542 4.476C21.1782 4.804 21.0902 5.208 21.0902 5.688C21.0902 6.4 21.2702 6.952 21.6302 7.344C21.9982 7.728 22.4582 7.92 23.0102 7.92ZM27.3385 5.688C27.3385 5.008 27.4745 4.412 27.7465 3.9C28.0265 3.38 28.4105 2.98 28.8985 2.7C29.3865 2.42 29.9465 2.28 30.5785 2.28C31.3785 2.28 32.0385 2.472 32.5585 2.856C33.0865 3.232 33.4425 3.772 33.6265 4.476H32.1505C32.0305 4.148 31.8385 3.892 31.5745 3.708C31.3105 3.524 30.9785 3.432 30.5785 3.432C30.0185 3.432 29.5705 3.632 29.2345 4.032C28.9065 4.424 28.7425 4.976 28.7425 5.688C28.7425 6.4 28.9065 6.956 29.2345 7.356C29.5705 7.756 30.0185 7.956 30.5785 7.956C31.3705 7.956 31.8945 7.608 32.1505 6.912H33.6265C33.4345 7.584 33.0745 8.12 32.5465 8.52C32.0185 8.912 31.3625 9.108 30.5785 9.108C29.9465 9.108 29.3865 8.968 28.8985 8.688C28.4105 8.4 28.0265 8 27.7465 7.488C27.4745 6.968 27.3385 6.368 27.3385 5.688ZM37.6058 5.7L40.6538 9H38.8058L36.3578 6.156V9H34.9898V0.12H36.3578V5.28L38.7578 2.388H40.6538L37.6058 5.7Z" fill="#64748B"/>
</svg>
