<svg width="58" height="58" viewBox="0 0 58 58" fill="none" xmlns="http://www.w3.org/2000/svg">
<path d="M37.5748 13.0074C37.3348 13.0074 37.091 12.9292 36.8883 12.7692C34.6185 10.9925 31.8911 10.0548 28.9999 10.0548C26.1087 10.0548 23.3813 10.9944 21.1115 12.7692C20.6259 13.1488 19.9245 13.0632 19.545 12.5776C19.1655 12.092 19.2511 11.3906 19.7366 11.0111C22.4027 8.92552 25.6064 7.82227 28.9999 7.82227C32.3934 7.82227 35.5971 8.92552 38.2631 11.0111C38.7487 11.3906 38.8343 12.092 38.4548 12.5776C38.2334 12.8604 37.9059 13.0074 37.5748 13.0074Z" fill="url(#paint0_linear_360_227)"/>
<path d="M41.8612 7.23438C41.6212 7.23438 41.3775 7.15624 41.1747 6.9981C37.6714 4.25764 33.4612 2.80834 28.9998 2.80834C24.5384 2.80834 20.3282 4.25764 16.8249 6.9981C16.3393 7.37764 15.6379 7.29206 15.2584 6.80648C14.8788 6.32089 14.9644 5.6195 15.45 5.23996C19.3495 2.1888 24.0361 0.577637 28.9998 0.577637C33.9635 0.577637 38.65 2.19066 42.5495 5.23996C43.0351 5.6195 43.1207 6.32089 42.7412 6.80648C42.5216 7.08741 42.1923 7.23438 41.8612 7.23438Z" fill="url(#paint1_linear_360_227)"/>
<path d="M29.0001 39.4464C15.0987 39.4464 0.324707 36.0362 0.324707 29.7143C0.324707 29.0985 0.825173 28.598 1.44099 28.598C2.0568 28.598 2.55727 29.0985 2.55727 29.7143C2.55727 31.4092 5.34983 33.3348 9.84657 34.7413C14.9461 36.3357 21.7498 37.2138 29.0001 37.2138C36.2503 37.2138 43.054 36.3357 48.1536 34.7413C52.6484 33.3366 55.4429 31.4092 55.4429 29.7143C55.4429 29.0985 55.9433 28.598 56.5591 28.598C57.175 28.598 57.6754 29.0985 57.6754 29.7143C57.6754 36.0362 42.9015 39.4464 29.0001 39.4464Z" fill="url(#paint2_linear_360_227)"/>
<path d="M29 57.4241C19.8353 57.4241 12.7246 56.2967 7.86508 54.0715C1.63252 51.2176 0.322754 47.0632 0.322754 44.079V30.2446C0.322754 22.5608 15.1358 19.8241 28.9981 19.8241C42.8604 19.8241 57.6735 22.5608 57.6735 30.2446V43.906C57.6735 46.9422 56.3656 51.1673 50.1367 54.0473C45.2939 56.2873 38.1832 57.4241 29 57.4241ZM29 22.0548C13.4316 22.0548 2.55717 25.4222 2.55717 30.2427V44.0771C2.55717 47.4669 4.65578 50.146 8.79531 52.0399C13.3609 54.1292 20.159 55.1897 29 55.1897C46.0511 55.1897 55.4428 51.1822 55.4428 43.9041V30.2427C55.4428 25.4222 44.5683 22.0548 29 22.0548Z" fill="#475569"/>
<path d="M33.1712 51.1264H24.8289C22.827 51.1264 21.1973 49.4966 21.1973 47.4948V46.9403C21.1973 44.9385 22.827 43.3087 24.8289 43.3087H33.1712C35.1731 43.3087 36.8028 44.9385 36.8028 46.9403V47.4948C36.8028 49.4966 35.1749 51.1264 33.1712 51.1264ZM24.8289 45.5394C24.0568 45.5394 23.4298 46.1664 23.4298 46.9385V47.4929C23.4298 48.265 24.0568 48.892 24.8289 48.892H33.1712C33.9433 48.892 34.5703 48.265 34.5703 47.4929V46.9385C34.5703 46.1664 33.9433 45.5394 33.1712 45.5394H24.8289Z" fill="#475569"/>
<defs>
<linearGradient id="paint0_linear_360_227" x1="20.8982" y1="10.4148" x2="24.0503" y2="1.20462" gradientUnits="userSpaceOnUse">
<stop stop-color="#FBA980"/>
<stop offset="1" stop-color="#F7CB6B"/>
</linearGradient>
<linearGradient id="paint1_linear_360_227" x1="17.3149" y1="3.90632" x2="20.9978" y2="-8.18203" gradientUnits="userSpaceOnUse">
<stop stop-color="#FBA980"/>
<stop offset="1" stop-color="#F7CB6B"/>
</linearGradient>
<linearGradient id="paint2_linear_360_227" x1="5.02944" y1="34.0222" x2="9.9508" y2="13.6865" gradientUnits="userSpaceOnUse">
<stop stop-color="#FBA980"/>
<stop offset="1" stop-color="#F7CB6B"/>
</linearGradient>
</defs>
</svg>
