<svg width="402" height="584" viewBox="0 0 402 584" fill="none" xmlns="http://www.w3.org/2000/svg">
<g filter="url(#filter0_d_376_4601)">
<rect x="121" y="107" width="147.758" height="322" rx="25" fill="white"/>
<rect x="140.5" y="188.5" width="110" height="31" rx="7.5" fill="#F1F5F9"/>
<path d="M158.375 213.673C158.333 213.673 158.291 213.665 158.25 213.65C158.099 213.592 158.006 213.44 158.025 213.28L158.77 206.916H154.62C154.497 206.916 154.382 206.852 154.319 206.747C154.255 206.641 154.251 206.511 154.308 206.402L160.522 194.516C160.6 194.367 160.772 194.294 160.934 194.342C161.095 194.39 161.2 194.546 161.183 194.713L160.387 202.931H165.38C165.511 202.931 165.631 203.004 165.692 203.12C165.753 203.236 165.743 203.376 165.668 203.484L158.663 213.522C158.596 213.618 158.487 213.673 158.375 213.673ZM155.2 206.213H159.166C159.267 206.213 159.362 206.256 159.429 206.331C159.496 206.406 159.527 206.506 159.516 206.605L158.887 211.973L164.706 203.634H160C159.901 203.634 159.806 203.592 159.74 203.518C159.674 203.445 159.641 203.347 159.65 203.248L160.31 196.441L155.2 206.213Z" fill="url(#paint0_linear_376_4601)"/>
<path d="M175.648 208.084C175.088 208.084 174.584 207.988 174.136 207.796C173.688 207.596 173.336 207.316 173.08 206.956C172.824 206.596 172.696 206.176 172.696 205.696H174.16C174.192 206.056 174.332 206.352 174.58 206.584C174.836 206.816 175.192 206.932 175.648 206.932C176.12 206.932 176.488 206.82 176.752 206.596C177.016 206.364 177.148 206.068 177.148 205.708C177.148 205.428 177.064 205.2 176.896 205.024C176.736 204.848 176.532 204.712 176.284 204.616C176.044 204.52 175.708 204.416 175.276 204.304C174.732 204.16 174.288 204.016 173.944 203.872C173.608 203.72 173.32 203.488 173.08 203.176C172.84 202.864 172.72 202.448 172.72 201.928C172.72 201.448 172.84 201.028 173.08 200.668C173.32 200.308 173.656 200.032 174.088 199.84C174.52 199.648 175.02 199.552 175.588 199.552C176.396 199.552 177.056 199.756 177.568 200.164C178.088 200.564 178.376 201.116 178.432 201.82H176.92C176.896 201.516 176.752 201.256 176.488 201.04C176.224 200.824 175.876 200.716 175.444 200.716C175.052 200.716 174.732 200.816 174.484 201.016C174.236 201.216 174.112 201.504 174.112 201.88C174.112 202.136 174.188 202.348 174.34 202.516C174.5 202.676 174.7 202.804 174.94 202.9C175.18 202.996 175.508 203.1 175.924 203.212C176.476 203.364 176.924 203.516 177.268 203.668C177.62 203.82 177.916 204.056 178.156 204.376C178.404 204.688 178.528 205.108 178.528 205.636C178.528 206.06 178.412 206.46 178.18 206.836C177.956 207.212 177.624 207.516 177.184 207.748C176.752 207.972 176.24 208.084 175.648 208.084ZM179.686 204.664C179.686 204 179.822 203.412 180.094 202.9C180.374 202.388 180.75 201.992 181.222 201.712C181.702 201.424 182.23 201.28 182.806 201.28C183.326 201.28 183.778 201.384 184.162 201.592C184.554 201.792 184.866 202.044 185.098 202.348V201.388H186.478V208H185.098V207.016C184.866 207.328 184.55 207.588 184.15 207.796C183.75 208.004 183.294 208.108 182.782 208.108C182.214 208.108 181.694 207.964 181.222 207.676C180.75 207.38 180.374 206.972 180.094 206.452C179.822 205.924 179.686 205.328 179.686 204.664ZM185.098 204.688C185.098 204.232 185.002 203.836 184.81 203.5C184.626 203.164 184.382 202.908 184.078 202.732C183.774 202.556 183.446 202.468 183.094 202.468C182.742 202.468 182.414 202.556 182.11 202.732C181.806 202.9 181.558 203.152 181.366 203.488C181.182 203.816 181.09 204.208 181.09 204.664C181.09 205.12 181.182 205.52 181.366 205.864C181.558 206.208 181.806 206.472 182.11 206.656C182.422 206.832 182.75 206.92 183.094 206.92C183.446 206.92 183.774 206.832 184.078 206.656C184.382 206.48 184.626 206.224 184.81 205.888C185.002 205.544 185.098 205.144 185.098 204.688ZM190.831 206.776L192.703 201.388H194.155L191.635 208H190.003L187.495 201.388H188.959L190.831 206.776ZM201.249 204.532C201.249 204.78 201.233 205.004 201.201 205.204H196.149C196.189 205.732 196.385 206.156 196.737 206.476C197.089 206.796 197.521 206.956 198.033 206.956C198.769 206.956 199.289 206.648 199.593 206.032H201.069C200.869 206.64 200.505 207.14 199.977 207.532C199.457 207.916 198.809 208.108 198.033 208.108C197.401 208.108 196.833 207.968 196.329 207.688C195.833 207.4 195.441 207 195.153 206.488C194.873 205.968 194.733 205.368 194.733 204.688C194.733 204.008 194.869 203.412 195.141 202.9C195.421 202.38 195.809 201.98 196.305 201.7C196.809 201.42 197.385 201.28 198.033 201.28C198.657 201.28 199.213 201.416 199.701 201.688C200.189 201.96 200.569 202.344 200.841 202.84C201.113 203.328 201.249 203.892 201.249 204.532ZM199.821 204.1C199.813 203.596 199.633 203.192 199.281 202.888C198.929 202.584 198.493 202.432 197.973 202.432C197.501 202.432 197.097 202.584 196.761 202.888C196.425 203.184 196.225 203.588 196.161 204.1H199.821ZM207.081 202.36C207.313 202.056 207.629 201.8 208.029 201.592C208.429 201.384 208.881 201.28 209.385 201.28C209.961 201.28 210.485 201.424 210.957 201.712C211.437 201.992 211.813 202.388 212.085 202.9C212.357 203.412 212.493 204 212.493 204.664C212.493 205.328 212.357 205.924 212.085 206.452C211.813 206.972 211.437 207.38 210.957 207.676C210.485 207.964 209.961 208.108 209.385 208.108C208.881 208.108 208.433 208.008 208.041 207.808C207.649 207.6 207.329 207.344 207.081 207.04V211.144H205.713V201.388H207.081V202.36ZM211.101 204.664C211.101 204.208 211.005 203.816 210.812 203.488C210.629 203.152 210.381 202.9 210.069 202.732C209.765 202.556 209.437 202.468 209.085 202.468C208.741 202.468 208.413 202.556 208.101 202.732C207.797 202.908 207.549 203.164 207.357 203.5C207.173 203.836 207.081 204.232 207.081 204.688C207.081 205.144 207.173 205.544 207.357 205.888C207.549 206.224 207.797 206.48 208.101 206.656C208.413 206.832 208.741 206.92 209.085 206.92C209.437 206.92 209.765 206.832 210.069 206.656C210.381 206.472 210.629 206.208 210.812 205.864C211.005 205.52 211.101 205.12 211.101 204.664ZM216.713 208.108C216.089 208.108 215.525 207.968 215.021 207.688C214.517 207.4 214.121 207 213.833 206.488C213.545 205.968 213.401 205.368 213.401 204.688C213.401 204.016 213.549 203.42 213.845 202.9C214.141 202.38 214.545 201.98 215.057 201.7C215.569 201.42 216.141 201.28 216.773 201.28C217.405 201.28 217.977 201.42 218.489 201.7C219.001 201.98 219.405 202.38 219.701 202.9C219.997 203.42 220.145 204.016 220.145 204.688C220.145 205.36 219.993 205.956 219.689 206.476C219.385 206.996 218.969 207.4 218.441 207.688C217.921 207.968 217.345 208.108 216.713 208.108ZM216.713 206.92C217.065 206.92 217.393 206.836 217.697 206.668C218.009 206.5 218.261 206.248 218.453 205.912C218.645 205.576 218.741 205.168 218.741 204.688C218.741 204.208 218.649 203.804 218.465 203.476C218.281 203.14 218.037 202.888 217.733 202.72C217.429 202.552 217.101 202.468 216.749 202.468C216.397 202.468 216.069 202.552 215.765 202.72C215.469 202.888 215.233 203.14 215.057 203.476C214.881 203.804 214.793 204.208 214.793 204.688C214.793 205.4 214.973 205.952 215.333 206.344C215.701 206.728 216.161 206.92 216.713 206.92ZM230.378 201.388L228.326 208H226.886L225.554 203.116L224.222 208H222.782L220.718 201.388H222.11L223.49 206.704L224.894 201.388H226.322L227.666 206.68L229.034 201.388H230.378ZM237.46 204.532C237.46 204.78 237.444 205.004 237.412 205.204H232.36C232.4 205.732 232.596 206.156 232.948 206.476C233.3 206.796 233.732 206.956 234.244 206.956C234.98 206.956 235.5 206.648 235.804 206.032H237.28C237.08 206.64 236.716 207.14 236.188 207.532C235.668 207.916 235.02 208.108 234.244 208.108C233.612 208.108 233.044 207.968 232.54 207.688C232.044 207.4 231.652 207 231.364 206.488C231.084 205.968 230.944 205.368 230.944 204.688C230.944 204.008 231.08 203.412 231.352 202.9C231.632 202.38 232.02 201.98 232.516 201.7C233.02 201.42 233.596 201.28 234.244 201.28C234.868 201.28 235.424 201.416 235.912 201.688C236.4 201.96 236.78 202.344 237.052 202.84C237.324 203.328 237.46 203.892 237.46 204.532ZM236.032 204.1C236.024 203.596 235.844 203.192 235.492 202.888C235.14 202.584 234.704 202.432 234.184 202.432C233.712 202.432 233.308 202.584 232.972 202.888C232.636 203.184 232.436 203.588 232.372 204.1H236.032ZM240.174 202.348C240.374 202.012 240.638 201.752 240.966 201.568C241.302 201.376 241.698 201.28 242.154 201.28V202.696H241.806C241.27 202.696 240.862 202.832 240.582 203.104C240.31 203.376 240.174 203.848 240.174 204.52V208H238.806V201.388H240.174V202.348Z" fill="#475569"/>
<rect x="140.5" y="188.5" width="110" height="31" rx="7.5" stroke="#CBD5E1"/>
<rect x="123" y="109" width="143.758" height="318" rx="23" stroke="#F8FAFC" stroke-width="4"/>
</g>
<path fill-rule="evenodd" clip-rule="evenodd" d="M131 331.478L140.115 344.191L149.23 311.501L158.345 318.217L167.46 303.615L176.575 306.077L185.69 284.94L194.805 298.825L203.919 286.093L213.034 294.266L222.149 279L231.264 301.013L240.379 292.358L249.494 308.601L258.609 297.876L267.724 311.595L276.839 303.615L285.954 308.601L295.516 292.358V368.57H131V331.478Z" fill="url(#paint1_linear_376_4601)"/>
<path d="M131 331.606L140.14 344.349L149.28 311.58L158.419 318.312L167.559 303.675L176.699 306.143L185.839 284.954L194.978 298.873L204.118 286.11L213.258 294.303L222.398 279L231.537 301.067L240.677 292.391L249.817 308.673L258.957 297.922L268.097 311.675L277.236 303.675L286.376 308.673L295.516 292.391" stroke="#FAB37A" stroke-width="2"/>
<path d="M295.517 284.483V368.569" stroke="#F9BE73" stroke-linecap="square"/>
<ellipse opacity="0.498433" cx="295.516" cy="293.624" rx="5.48386" ry="5.48386" fill="#F9BE73"/>
<ellipse cx="295.516" cy="293.624" rx="2.28494" ry="2.28494" fill="#F9BE73"/>
<defs>
<filter id="filter0_d_376_4601" x="0" y="0" width="409.758" height="584" filterUnits="userSpaceOnUse" color-interpolation-filters="sRGB">
<feFlood flood-opacity="0" result="BackgroundImageFix"/>
<feColorMatrix in="SourceAlpha" type="matrix" values="0 0 0 0 0 0 0 0 0 0 0 0 0 0 0 0 0 0 127 0" result="hardAlpha"/>
<feMorphology radius="21" operator="dilate" in="SourceAlpha" result="effect1_dropShadow_376_4601"/>
<feOffset dx="10" dy="24"/>
<feGaussianBlur stdDeviation="55"/>
<feComposite in2="hardAlpha" operator="out"/>
<feColorMatrix type="matrix" values="0 0 0 0 0 0 0 0 0 0 0 0 0 0 0 0 0 0 0.08 0"/>
<feBlend mode="normal" in2="BackgroundImageFix" result="effect1_dropShadow_376_4601"/>
<feBlend mode="normal" in="SourceGraphic" in2="effect1_dropShadow_376_4601" result="shape"/>
</filter>
<linearGradient id="paint0_linear_376_4601" x1="155.208" y1="204" x2="169.848" y2="197.219" gradientUnits="userSpaceOnUse">
<stop stop-color="#14BCDB"/>
<stop offset="1" stop-color="#01D894"/>
</linearGradient>
<linearGradient id="paint1_linear_376_4601" x1="131" y1="279" x2="131" y2="368.57" gradientUnits="userSpaceOnUse">
<stop stop-color="#FAAC7E" stop-opacity="0.63"/>
<stop offset="1" stop-color="#F7CB6B" stop-opacity="0.37"/>
</linearGradient>
</defs>
</svg>
